<?xml version="1.0" encoding="UTF-8" standalone="no"?>
<!-- Created with Inkscape (http://www.inkscape.org/) -->

<svg
   width="1080"
   height="1080"
   viewBox="0 0 1080 1080"
   version="1.1"
   id="svg1"
   inkscape:version="1.3 (0e150ed, 2023-07-21)"
   sodipodi:docname="icotrp.svg"
   inkscape:export-filename="ico.png"
   inkscape:export-xdpi="96"
   inkscape:export-ydpi="96"
   xmlns:inkscape="http://www.inkscape.org/namespaces/inkscape"
   xmlns:sodipodi="http://sodipodi.sourceforge.net/DTD/sodipodi-0.dtd"
   xmlns="http://www.w3.org/2000/svg"
   xmlns:svg="http://www.w3.org/2000/svg">
  <sodipodi:namedview
     id="namedview1"
     pagecolor="#ffffff"
     bordercolor="#000000"
     borderopacity="0.25"
     inkscape:showpageshadow="2"
     inkscape:pageopacity="0.0"
     inkscape:pagecheckerboard="0"
     inkscape:deskcolor="#d1d1d1"
     inkscape:document-units="px"
     inkscape:zoom="0.39490741"
     inkscape:cx="541.89918"
     inkscape:cy="540.63306"
     inkscape:window-width="1920"
     inkscape:window-height="1051"
     inkscape:window-x="0"
     inkscape:window-y="0"
     inkscape:window-maximized="1"
     inkscape:current-layer="layer1" />
  <defs
     id="defs1" />
  <g
     inkscape:label="Layer 1"
     inkscape:groupmode="layer"
     id="layer1"
     style="display:inline" />
  <g
     inkscape:groupmode="layer"
     id="layer2"
     inkscape:label="Layer 2"
     sodipodi:insensitive="true">
    <g
       id="g1"
       transform="matrix(1.4013604,0,0,1.4013604,-686.86272,-429.3871)">
      <path
         style="font-size:192px;font-family:'Minstrel Poster NF';-inkscape-font-specification:'Minstrel Poster NF';white-space:pre;fill:#00ffff;stroke-width:2.15514"
         d="M 1051.9596,935.77049 V 616.74137 H 942.30625 L 875.27289,725.56713 808.65333,616.74137 H 699 V 935.77049 H 809.89469 V 827.35852 l 65.3782,124.13584 65.792,-124.13584 v 108.41197 z"
         id="text1" />
      <path
         id="path13"
         style="fill:#00ffff;fill-opacity:1;stroke:none;stroke-width:0.0245509"
         d="m 955.19825,432 -71.27944,38.37153 c -4.69663,17.14825 -11.82078,43.11318 -20.30544,73.79656 -11.85374,42.90432 -12.31988,44.61569 -11.61332,44.26869 0.41724,-0.20991 6.7992,-3.68797 14.1936,-7.77027 7.40669,-4.06078 15.75484,-8.60421 18.56279,-10.12326 l 5.12265,-2.75704 -8.34693,37.90429 c -4.60824,20.84032 -9.80561,44.50923 -11.60071,52.603 -2.81305,12.74657 -3.32929,15.55549 -2.83281,14.98914 0.0517,-0.0575 19.12232,-31.61882 42.37032,-70.1177 23.24803,-38.4989 46.6766,-77.2701 52.03475,-86.15493 5.37943,-8.89702 9.66718,-16.24076 9.54236,-16.31084 -0.13707,-0.0916 -2.87776,1.44665 -6.80635,3.77569 -12.49878,7.42181 -48.8958,28.69342 -49.04198,28.63553 -0.1,-0.0274 13.91638,-35.48578 31.13583,-78.79717 z" />
    </g>
  </g>
</svg>
