<?xml version="1.0" encoding="UTF-8" standalone="no"?>
<!-- Created with Inkscape (http://www.inkscape.org/) -->

<svg
   width="1831.9644"
   height="295.34781"
   viewBox="0 0 1831.9644 295.34781"
   version="1.1"
   id="svg1"
   xml:space="preserve"
   inkscape:version="1.3 (0e150ed, 2023-07-21)"
   sodipodi:docname="logotrp.svg"
   xmlns:inkscape="http://www.inkscape.org/namespaces/inkscape"
   xmlns:sodipodi="http://sodipodi.sourceforge.net/DTD/sodipodi-0.dtd"
   xmlns="http://www.w3.org/2000/svg"
   xmlns:svg="http://www.w3.org/2000/svg"><sodipodi:namedview
     id="namedview1"
     pagecolor="#ffffff"
     bordercolor="#000000"
     borderopacity="0.25"
     inkscape:showpageshadow="2"
     inkscape:pageopacity="0.0"
     inkscape:pagecheckerboard="0"
     inkscape:deskcolor="#d1d1d1"
     inkscape:document-units="px"
     inkscape:zoom="0.27924171"
     inkscape:cx="870.21385"
     inkscape:cy="-23.277325"
     inkscape:window-width="1920"
     inkscape:window-height="1051"
     inkscape:window-x="0"
     inkscape:window-y="0"
     inkscape:window-maximized="1"
     inkscape:current-layer="layer2" /><defs
     id="defs1"><rect
       x="343.91452"
       y="340.47842"
       width="1364.3737"
       height="444.56924"
       id="rect2" /></defs><g
     inkscape:label="Layer 1"
     inkscape:groupmode="layer"
     id="layer1"
     style="display:inline"
     transform="translate(-44.017818,-419.47528)" /><g
     inkscape:groupmode="layer"
     id="layer2"
     inkscape:label="Layer 2"
     transform="translate(-44.017818,-419.47528)"><g
       id="g1"
       transform="matrix(1.2252582,0,0,1.2252582,-216.24789,-94.490245)"><path
         style="font-size:192px;font-family:'Minstrel Poster NF';-inkscape-font-specification:'Minstrel Poster NF';white-space:pre;fill:#00ffff"
         d="m 1554.175,653.22872 v -148.032 h 23.424 c 85.824,0 126.72,71.616 129.984,148.032 h -53.568 c -1.152,-40.512 -16.704,-75.648 -49.92,-92.352 v 35.328 h 20.72 v 49.92 h -20.72 v 7.104 z"
         id="path11" /><path
         style="font-size:192px;font-family:'Minstrel Poster NF';-inkscape-font-specification:'Minstrel Poster NF';white-space:pre;fill:#00ffff"
         d="m 1527.2634,653.22872 v -45.888 h -62.4 c -4.8,-8.448 -7.296,-17.856 -7.296,-28.032 0,-10.176 2.688,-19.776 7.296,-28.224 h 62.4 v -45.888 h -94.272 c -17.856,19.584 -28.8,45.504 -28.8,74.112 0,28.416 11.136,54.336 28.992,73.92 z"
         id="path10" /><path
         style="font-size:192px;font-family:'Minstrel Poster NF';-inkscape-font-specification:'Minstrel Poster NF';white-space:pre;fill:#00ffff"
         d="m 1377.2795,653.22872 v -148.032 h -51.264 v 148.032 z"
         id="path9" /><path
         id="path8"
         style="font-size:192px;font-family:'Minstrel Poster NF';-inkscape-font-specification:'Minstrel Poster NF';white-space:pre;fill:#00ffff"
         d="m 1127.295,505.19598 v 148.0332 h 50.4961 v -36.67187 h 29.5684 l 27.8477,36.55469 h 60.1933 l -32.3613,-51.33985 c 11.328,-9.40799 18.2402,-23.03855 18.2402,-40.89453 0,-36.28796 -28.9923,-55.68164 -64.3203,-55.68164 z m 50.4961,44.16016 h 35.1368 c 7.296,0 13.248,4.03349 13.248,11.52148 0,7.48799 -5.952,11.51953 -13.248,11.51953 h -35.1368 z" /><path
         style="font-size:192px;font-family:'Minstrel Poster NF';-inkscape-font-specification:'Minstrel Poster NF';white-space:pre;fill:#00ffff"
         d="m 1100.3837,551.08472 v -45.888 H 992.28767 v 45.888 h 28.60803 v 101.952 h 51.072 v -101.952 z"
         id="path7" /><path
         style="font-size:192px;font-family:'Minstrel Poster NF';-inkscape-font-specification:'Minstrel Poster NF';white-space:pre;fill:#00ffff"
         d="m 965.37597,653.22872 v -45.888 h -62.4 c -4.8,-8.448 -7.296,-17.856 -7.296,-28.032 0,-10.176 2.688,-19.776 7.296,-28.224 h 62.4 v -45.888 h -94.272 c -17.85597,19.584 -28.79997,45.504 -28.79997,74.112 0,28.416 11.136,54.336 28.99197,73.92 z"
         id="path6" /><path
         style="font-size:192px;font-family:'Minstrel Poster NF';-inkscape-font-specification:'Minstrel Poster NF';white-space:pre;fill:#00ffff"
         d="m 820.96052,653.22872 v -45.696 h -67.392 v -56.448 h 67.392 v -45.888 h -118.272 v 148.032 z"
         id="path5" /><path
         style="font-size:192px;font-family:'Minstrel Poster NF';-inkscape-font-specification:'Minstrel Poster NF';white-space:pre;fill:#00ffff"
         d="m 800.22452,597.93272 v -37.248 h -49.744 v 37.248 z"
         id="path4"
         sodipodi:nodetypes="ccccc" /><path
         style="font-size:192px;font-family:'Minstrel Poster NF';-inkscape-font-specification:'Minstrel Poster NF';white-space:pre;fill:#00ffff"
         d="m 675.77684,653.22872 v -45.888 h -41.47199 v -102.144 h -50.88 v 148.032 z"
         id="path3" /><path
         style="font-size:192px;font-family:'Minstrel Poster NF';-inkscape-font-specification:'Minstrel Poster NF';white-space:pre;fill:#00ffff"
         d="m 556.51302,653.22872 v -148.032 h -23.424 c -85.824,0 -126.72,71.616 -129.984,148.032 h 53.568 c 1.152,-40.512 16.704,-75.648 49.92,-92.352 v 35.328 h -20.72 v 49.92 h 20.72 v 7.104 z"
         id="path2" /><path
         style="font-size:192px;font-family:'Minstrel Poster NF';-inkscape-font-specification:'Minstrel Poster NF';white-space:pre;fill:#00ffff"
         d="m 376.19303,653.22872 v -148.032 h -50.88 l -31.104,50.496 -30.912,-50.496 h -50.88 v 148.032 h 51.456 v -50.304 l 30.336,57.6 30.528,-57.6 v 50.304 z"
         id="text1" /><path
         id="path13"
         style="fill:#00ffff;fill-opacity:1;stroke:none;stroke-width:0.0113918"
         d="m 331.29502,419.47528 -33.07422,17.80469 c -2.17927,7.95692 -5.48493,20.00485 -9.42188,34.24218 -5.50023,19.90794 -5.71652,20.70203 -5.38867,20.54102 0.1936,-0.0974 3.15488,-1.71125 6.58594,-3.60547 3.43676,-1.88423 7.31037,-3.99242 8.61328,-4.69727 l 2.37695,-1.27929 -3.87304,17.58789 c -2.13826,9.67007 -4.54988,20.65263 -5.38282,24.4082 -1.30528,5.91451 -1.54482,7.21787 -1.31445,6.95508 0.024,-0.0267 8.87291,-14.67138 19.66016,-32.53516 10.78727,-17.86379 21.65831,-35.85393 24.14453,-39.97656 2.4961,-4.12829 4.48565,-7.53584 4.42773,-7.56836 -0.0636,-0.0425 -1.3353,0.67126 -3.1582,1.75195 -5.79953,3.44378 -22.68803,13.31397 -22.75586,13.28711 -0.0464,-0.0127 6.45731,-16.46568 14.44727,-36.5625 z" /></g></g></svg>
